<svg aria-hidden="true" style="position: absolute; width: 0; height: 0; overflow: hidden;" version="1.1" xmlns="http://www.w3.org/2000/svg" xmlns:xlink="http://www.w3.org/1999/xlink">
<defs>
<symbol id="icon-left-arrow" viewBox="0 0 72 32">
<path fill="#f6f5ef" style="fill: var(--color1, #f6f5ef)" d="M50 0l22 16-22 16v-13.229h-50v-5.543h50v-13.229z"></path>
</symbol>
<symbol id="icon-right-arrow" viewBox="0 0 72 32">
<path fill="#f6f5ef" style="fill: var(--color1, #f6f5ef)" d="M22 0l-22 16 22 16v-13.229h50v-5.543h-50v-13.229z"></path>
</symbol>
<symbol id="icon-logo" viewBox="0 0 31 32">
<path d="M0 25.621l7.219 6.379h21.175l3.033-4.26-31.427-2.119zM18.646 0v25.431l9.747 0.671-9.746-26.101zM17.319 4.285l-14.082 20.036 14.082 0.951v-20.987z"></path>
</symbol>
<symbol id="icon-top-arrow" viewBox="0 0 16 32">
<path fill="#f6f5ef" style="fill: var(--color1, #f6f5ef)" d="M0 9.777l8-9.777 8 9.777h-6.615v22.223h-2.77v-22.223h-6.615z"></path>
</symbol>
<symbol id="icon-top-arrow-send" viewBox="0 0 67 32">
<path fill="#f6f5ef" style="fill: var(--color1, #f6f5ef)" d="M46.189 0l20.323 16-20.323 16v-13.229h-46.189v-5.543h46.189v-13.229z"></path>
</symbol>
<symbol id="icon-youtube" viewBox="0 0 32 32">
<path fill="#f6f5ef" style="fill: var(--color1, #f6f5ef)" d="M24.239 5.999c-1.359-0.079-4.159-0.16-8.4-0.16h-0.56c-4.080 0-6.799 0.080-8.161 0.24-1.839 0.16-3.118 0.639-3.839 1.28-0.641 0.56-1.121 1.6-1.279 2.96-0.080 0.881-0.161 2.72-0.161 5.52v0.4c0 2.641 0.080 4.48 0.241 5.36 0.239 1.28 0.638 2.24 1.44 2.8 0.799 0.64 2.159 1.040 4.078 1.2 1.362 0.080 4.161 0.16 8.402 0.16h0.56c4.078 0 6.799-0.079 8.159-0.24 1.841-0.16 3.12-0.64 3.841-1.28 0.638-0.559 1.118-1.599 1.279-2.96 0.080-0.879 0.161-2.72 0.161-5.52v-0.4c0-2.641-0.080-4.48-0.241-5.361-0.239-1.28-0.64-2.24-1.44-2.799-0.799-0.641-2.161-1.040-4.080-1.201zM21.118 15.839l-8.799 5.28v-10.56l8.799 5.28z"></path>
</symbol>
<symbol id="icon-instagram" viewBox="0 0 32 32">
<path fill="#f6f5ef" style="fill: var(--color1, #f6f5ef)" d="M24.545 5.536c-0.379 0-0.752 0.113-1.067 0.324-0.317 0.211-0.563 0.511-0.708 0.862-0.145 0.352-0.183 0.737-0.109 1.109s0.257 0.714 0.525 0.983c0.27 0.269 0.611 0.451 0.984 0.526 0.373 0.074 0.759 0.036 1.11-0.109s0.65-0.392 0.861-0.708c0.21-0.316 0.324-0.686 0.324-1.066 0-0.51-0.203-0.998-0.563-1.358-0.359-0.359-0.848-0.563-1.357-0.563zM31.904 9.408c-0.031-1.328-0.279-2.642-0.737-3.888-0.406-1.067-1.040-2.034-1.855-2.833-0.792-0.819-1.761-1.449-2.832-1.839-1.243-0.47-2.558-0.724-3.888-0.752-1.696-0.096-2.239-0.096-6.592-0.096s-4.895 0-6.592 0.096c-1.33 0.028-2.645 0.282-3.888 0.752-1.069 0.394-2.038 1.023-2.833 1.839-0.819 0.792-1.449 1.761-1.839 2.833-0.471 1.243-0.725 2.558-0.752 3.888-0.096 1.695-0.096 2.24-0.096 6.592s0 4.896 0.096 6.592c0.027 1.33 0.281 2.645 0.752 3.888 0.391 1.071 1.020 2.040 1.839 2.832 0.795 0.816 1.763 1.445 2.833 1.839 1.243 0.47 2.558 0.724 3.888 0.752 1.696 0.096 2.239 0.096 6.592 0.096s4.895 0 6.592-0.096c1.33-0.028 2.645-0.282 3.888-0.752 1.071-0.391 2.040-1.020 2.832-1.839 0.819-0.797 1.453-1.763 1.855-2.832 0.458-1.247 0.705-2.56 0.737-3.888 0-1.695 0.096-2.24 0.096-6.592s0-4.896-0.096-6.592zM29.024 22.4c-0.011 1.016-0.196 2.022-0.544 2.977-0.255 0.696-0.665 1.326-1.201 1.84-0.518 0.528-1.145 0.938-1.839 1.2-0.953 0.348-1.96 0.532-2.976 0.544-1.6 0.080-2.192 0.096-6.4 0.096-4.21 0-4.801 0-6.402-0.096-1.054 0.020-2.103-0.143-3.103-0.48-0.663-0.275-1.261-0.683-1.761-1.2-0.531-0.515-0.935-1.144-1.183-1.84-0.391-0.968-0.607-1.997-0.641-3.040 0-1.599-0.096-2.192-0.096-6.4s0-4.8 0.096-6.4c0.007-1.039 0.196-2.068 0.56-3.040 0.281-0.675 0.714-1.278 1.263-1.76 0.487-0.55 1.087-0.988 1.761-1.28 0.975-0.352 2.002-0.536 3.040-0.545 1.6 0 2.192-0.096 6.4-0.096s4.799 0 6.4 0.096c1.016 0.012 2.022 0.196 2.976 0.545 0.728 0.27 1.382 0.709 1.904 1.28 0.525 0.491 0.935 1.093 1.201 1.76 0.355 0.974 0.54 2.002 0.544 3.040 0.080 1.599 0.096 2.192 0.096 6.4s-0.016 4.8-0.096 6.4zM16 7.792c-1.623 0.002-3.208 0.487-4.556 1.391s-2.397 2.186-3.016 3.688c-0.618 1.5-0.779 3.15-0.46 4.741 0.317 1.59 1.1 3.051 2.25 4.198 1.147 1.146 2.609 1.926 4.201 2.242 1.594 0.316 3.243 0.152 4.741-0.47 1.5-0.622 2.779-1.674 3.681-3.023s1.382-2.935 1.382-4.558c0.002-1.080-0.208-2.15-0.621-3.147s-1.020-1.904-1.784-2.667c-0.763-0.762-1.672-1.366-2.67-1.778-1-0.411-2.069-0.619-3.15-0.615zM16 21.328c-1.054 0-2.085-0.312-2.96-0.898-0.877-0.585-1.56-1.417-1.962-2.391-0.404-0.973-0.509-2.045-0.304-3.078s0.712-1.983 1.458-2.729c0.746-0.744 1.694-1.252 2.728-1.458s2.105-0.1 3.078 0.304c0.975 0.403 1.806 1.086 2.393 1.962 0.585 0.876 0.897 1.906 0.897 2.96 0 0.7-0.138 1.393-0.406 2.039s-0.661 1.233-1.154 1.729c-0.496 0.494-1.083 0.887-1.73 1.154-0.645 0.268-1.339 0.406-2.038 0.406z"></path>
</symbol>
<symbol id="icon-facebook" viewBox="0 0 17 32">
<path fill="#f6f5ef" style="fill: var(--color1, #f6f5ef)" d="M13.979 5.313h3.088v-5.089c-1.496-0.151-2.998-0.226-4.5-0.224-4.469 0-7.523 2.656-7.523 7.52v4.193h-5.044v5.696h5.044v14.592h6.044v-14.592h5.027l0.754-5.696h-5.781v-3.632c0-1.68 0.46-2.768 2.892-2.768z"></path>
</symbol>
</defs>
</svg>
